<?xml version="1.0" encoding="UTF-8" standalone="no"?>
<!-- Created with Inkscape (http://www.inkscape.org/) -->
<svg xmlns:dc="http://purl.org/dc/elements/1.1/" xmlns:cc="http://creativecommons.org/ns#" xmlns:rdf="http://www.w3.org/1999/02/22-rdf-syntax-ns#" xmlns:svg="http://www.w3.org/2000/svg" xmlns="http://www.w3.org/2000/svg" xmlns:sodipodi="http://sodipodi.sourceforge.net/DTD/sodipodi-0.dtd" xmlns:inkscape="http://www.inkscape.org/namespaces/inkscape" width="5in" height="5in" id="svg2" version="1.1" viewBox="0 0 750 750" inkscape:version="0.47 r22583" sodipodi:docname="LinearTransformations.svg">
  <defs id="defs4">
    <marker inkscape:stockid="Arrow2Lend" orient="auto" refY="0" refX="0" id="Arrow2Lend" style="overflow:visible">
      <path id="path3668" style="font-size:12px;fill-rule:evenodd;stroke-width:0.625;stroke-linejoin:round" d="M 8.7185878,4.0337352 -2.2072895,0.01601326 8.7185884,-4.0017078 c -1.7454984,2.3720609 -1.7354408,5.6174519 -6e-7,8.035443 z" transform="matrix(-1.1,0,0,-1.1,-1.1,0)"/>
    </marker>
    <inkscape:perspective sodipodi:type="inkscape:persp3d" inkscape:vp_x="0 : 526.18109 : 1" inkscape:vp_y="0 : 1000 : 0" inkscape:vp_z="744.09448 : 526.18109 : 1" inkscape:persp3d-origin="372.04724 : 350.78739 : 1" id="perspective10"/>
  </defs>
  <sodipodi:namedview id="base" pagecolor="#ffffff" bordercolor="#666666" borderopacity="1.0" inkscape:pageopacity="0.0" inkscape:pageshadow="2" inkscape:zoom="0.98994949" inkscape:cx="362.09941" inkscape:cy="403.36781" inkscape:document-units="px" inkscape:current-layer="layer1" showgrid="false" inkscape:window-width="1272" inkscape:window-height="940" inkscape:window-x="0" inkscape:window-y="0" inkscape:window-maximized="0" units="pt"/>
  <metadata id="metadata7">
    <rdf:RDF>
      <cc:Work rdf:about="">
        <dc:format>image/svg+xml</dc:format>
        <dc:type rdf:resource="http://purl.org/dc/dcmitype/StillImage"/>
        <dc:title/>
      </cc:Work>
    </rdf:RDF>
  </metadata>
  <g inkscape:label="Layer 1" inkscape:groupmode="layer" id="layer1" transform="translate(-0.77875726,-104.91777)">
    <rect style="color:#000000;fill:#cacba7;fill-opacity:0.26940637;fill-rule:nonzero;stroke:#1a0d1d;stroke-width:3.75;stroke-linecap:butt;stroke-linejoin:miter;stroke-miterlimit:4;stroke-opacity:1;stroke-dasharray:none;stroke-dashoffset:0;marker:none;visibility:visible;display:inline;overflow:visible;enable-background:accumulate" id="rect2820" width="127.27922" height="127.27922" x="321.22849" y="383.6412"/>
    <path style="color:#000000;fill:#cacba7;fill-opacity:0.26940637;fill-rule:nonzero;stroke:#1a0d1d;stroke-width:3.75;stroke-linecap:butt;stroke-linejoin:miter;stroke-miterlimit:4;stroke-opacity:1;stroke-dashoffset:0;marker:none;visibility:visible;display:inline;overflow:visible;enable-background:accumulate" d="m 321.22849,655.37222 c 43.77328,-30.97797 86.19968,-30.97805 127.27922,0 l 0,127.27922 c -43.77328,-21.54995 -86.19968,-21.5499 -127.27922,0 l 0,-127.27922 z" id="rect3596" sodipodi:nodetypes="ccccc"/>
    <rect y="649.99622" x="277.85226" height="127.27922" width="127.27922" id="rect3598" style="color:#000000;fill:#cacba7;fill-opacity:0.26940637;fill-rule:nonzero;stroke:#1a0d1d;stroke-width:3.75;stroke-linecap:butt;stroke-linejoin:miter;stroke-miterlimit:4;stroke-opacity:1;stroke-dasharray:none;stroke-dashoffset:0;marker:none;visibility:visible;display:inline;overflow:visible;enable-background:accumulate" transform="matrix(0.8660254,-0.5,0.5,0.8660254,0,0)"/>
    <rect y="442.9902" x="-203.68828" height="146.96921" width="127.27922" id="rect3600" style="color:#000000;fill:#cacba7;fill-opacity:0.26940637;fill-rule:nonzero;stroke:#1a0d1d;stroke-width:4.02963495;stroke-linecap:butt;stroke-linejoin:miter;stroke-miterlimit:4;stroke-opacity:1;stroke-dasharray:none;stroke-dashoffset:0;marker:none;visibility:visible;display:inline;overflow:visible;enable-background:accumulate" transform="matrix(1,0,0.49999826,0.86602641,0,0)"/>
    <rect y="153.07388" x="289.40869" height="95.459412" width="190.91882" id="rect3602" style="color:#000000;fill:#cacba7;fill-opacity:0.26940637;fill-rule:nonzero;stroke:#1a0d1d;stroke-width:3.97747564;stroke-linecap:butt;stroke-linejoin:miter;stroke-miterlimit:4;stroke-opacity:1;stroke-dasharray:none;stroke-dashoffset:0;marker:none;visibility:visible;display:inline;overflow:visible;enable-background:accumulate"/>
    <g style="font-size:160px;font-style:normal;font-variant:normal;font-weight:normal;font-stretch:normal;text-align:start;line-height:125%;writing-mode:lr-tb;text-anchor:start;fill:#00bd3d;fill-opacity:0.63926942;stroke:none;font-family:Zapf Dingbats;-inkscape-font-specification:Zapf Dingbats" id="text3605">
      <path d="m 91.613823,435.01031 c 1.145803,0.41674 2.057261,0.91153 2.734375,1.48438 0.729134,0.5209 1.354134,1.19798 1.875,2.03125 0.520799,2.81256 1.197882,7.78652 2.03125,14.92187 0.88538,7.13547 1.822882,12.70838 2.812502,16.71875 0.78121,0.93754 1.56246,1.66671 2.34375,2.1875 0.78121,0.46879 1.53641,0.70316 2.26562,0.70313 1.30204,3e-5 10.05203,-7.8385 26.25,-23.51563 l 1.875,-1.875 c 2.49993,-2.49993 6.30201,-6.30201 11.40625,-11.40625 17.03115,-17.29157 30.83322,-29.8176 41.40625,-37.57812 1.51029,-0.41656 2.8905,-0.72906 4.14063,-0.9375 1.24987,-0.26031 2.31758,-0.39052 3.20312,-0.39063 1.09362,1.1e-4 1.82279,0.70324 2.1875,2.10938 0.36445,1.35427 0.54674,5.02614 0.54688,11.01562 -1.4e-4,0.57302 -0.0522,1.97927 -0.15625,4.21875 -0.0522,1.51051 -0.1043,2.73447 -0.15625,3.67188 -16.14595,18.48965 -30.23448,33.95839 -42.26563,46.40625 -11.97924,12.39586 -23.9584,24.01043 -35.9375,34.84375 -1.66672,1.45834 -3.9063,3.48959 -6.71875,6.09375 -9.68754,8.85416 -15.989613,13.28124 -18.906247,13.28125 -0.729196,-10e-6 -1.484404,-0.0521 -2.265625,-0.15625 -0.729194,-0.0521 -1.640651,-0.15626 -2.734375,-0.3125 -4.010438,-2.13543 -7.473976,-4.32293 -10.390625,-6.5625 -2.864595,-2.1875 -5.260426,-4.47917 -7.1875,-6.875 -1.406256,-8.74999 -2.500005,-16.92707 -3.28125,-24.53125 -0.781253,-7.65622 -1.171878,-13.776 -1.171875,-18.35938 -3e-6,-4.8437 0.416663,-8.48953 1.25,-10.9375 0.885412,-2.49994 2.60416,-5.15619 5.15625,-7.96875 0.208324,-0.20827 0.520823,-0.57285 0.9375,-1.09375 4.583318,-4.89576 9.661438,-7.34367 15.234375,-7.34375 0.88539,8e-5 1.562473,0.0261 2.03125,0.0781 0.520805,7e-5 1.015596,0.0261 1.484375,0.0781" style="fill:#00bd3d;font-family:Zapf Dingbats;-inkscape-font-specification:Zapf Dingbats" id="path4654"/>
    </g>
    <g style="font-size:224px;font-style:normal;font-variant:normal;font-weight:normal;font-stretch:normal;text-align:start;line-height:125%;writing-mode:lr-tb;text-anchor:start;fill:#f55858;fill-opacity:0.7123288;stroke:none;font-family:Zapf Dingbats;-inkscape-font-specification:Zapf Dingbats" id="text3609">
      <path d="m 300.97388,761.95941 49.76562,-49.65625 -49.76562,-49.76562 33.6875,-33.57813 49.65625,49.98438 49.76562,-49.98438 33.35938,33.57813 -49.98438,49.76562 49.98438,49.4375 -33.35938,33.57813 -49.98437,-49.65625 -49.65625,49.65625 -33.46875,-33.35938" style="fill:#f55858;font-family:Zapf Dingbats;-inkscape-font-specification:Zapf Dingbats" id="path4660"/>
    </g>
    <g style="font-size:160px;font-style:normal;font-variant:normal;font-weight:normal;font-stretch:normal;text-align:start;line-height:125%;writing-mode:lr-tb;text-anchor:start;fill:#00bd3d;fill-opacity:0.63926942;stroke:none;font-family:Zapf Dingbats;-inkscape-font-specification:Zapf Dingbats" id="text3613">
      <path d="m 358.2941,176.41125 c 1.1458,0.41674 2.05726,0.91153 2.73437,1.48438 0.72914,0.5209 1.35414,1.19798 1.875,2.03125 0.5208,2.81256 1.19788,7.78652 2.03125,14.92187 0.88538,7.13547 1.82288,12.70838 2.8125,16.71875 0.78121,0.93754 1.56246,1.66671 2.34375,2.1875 0.78121,0.46879 1.53642,0.70316 2.26563,0.70313 1.30204,3e-5 10.05203,-7.8385 26.25,-23.51563 l 1.875,-1.875 c 2.49992,-2.49993 6.302,-6.30201 11.40625,-11.40625 17.03115,-17.29157 30.83322,-29.8176 41.40625,-37.57812 1.51029,-0.41656 2.8905,-0.72906 4.14062,-0.9375 1.24987,-0.26031 2.31758,-0.39052 3.20313,-0.39063 1.09362,1.1e-4 1.82278,0.70324 2.1875,2.10938 0.36445,1.35427 0.54674,5.02614 0.54687,11.01562 -1.3e-4,0.57302 -0.0522,1.97926 -0.15625,4.21875 -0.0522,1.51051 -0.1043,2.73447 -0.15625,3.67188 -16.14595,18.48965 -30.23448,33.95839 -42.26562,46.40625 -11.97925,12.39586 -23.9584,24.01043 -35.9375,34.84375 -1.66672,1.45834 -3.9063,3.48959 -6.71875,6.09375 -9.68754,8.85416 -15.98962,13.28124 -18.90625,13.28125 -0.7292,-10e-6 -1.48441,-0.0521 -2.26563,-0.15625 -0.72919,-0.0521 -1.64065,-0.15626 -2.73437,-0.3125 -4.01044,-2.13543 -7.47398,-4.32293 -10.39063,-6.5625 -2.86459,-2.1875 -5.26042,-4.47917 -7.1875,-6.875 -1.40625,-8.74999 -2.5,-16.92707 -3.28125,-24.53125 -0.78125,-7.65622 -1.17187,-13.776 -1.17187,-18.35938 0,-4.8437 0.41666,-8.48953 1.25,-10.9375 0.88541,-2.49994 2.60416,-5.15619 5.15625,-7.96875 0.20832,-0.20827 0.52082,-0.57285 0.9375,-1.09375 4.58332,-4.89576 9.66144,-7.34367 15.23437,-7.34375 0.88539,8e-5 1.56248,0.0261 2.03125,0.0781 0.52081,7e-5 1.0156,0.0261 1.48438,0.0781" style="line-height:125%;fill:#00bd3d;font-family:Zapf Dingbats;-inkscape-font-specification:Zapf Dingbats" id="path4651"/>
    </g>
    <g style="font-size:160px;font-style:normal;font-variant:normal;font-weight:normal;font-stretch:normal;text-align:start;line-height:125%;writing-mode:lr-tb;text-anchor:start;fill:#00bd3d;fill-opacity:0.63926942;stroke:none;font-family:Zapf Dingbats;-inkscape-font-specification:Zapf Dingbats" id="text3617">
      <path d="m 618.91345,424.90875 c 1.14581,0.41674 2.05726,0.91153 2.73438,1.48438 0.72913,0.5209 1.35413,1.19798 1.875,2.03125 0.5208,2.81256 1.19788,7.78652 2.03125,14.92187 0.88538,7.13546 1.82288,12.70838 2.8125,16.71875 0.78121,0.93754 1.56246,1.6667 2.34375,2.1875 0.78121,0.46879 1.53641,0.70316 2.26562,0.70313 1.30204,3e-5 10.05203,-7.8385 26.25,-23.51563 l 1.875,-1.875 c 2.49993,-2.49994 6.30201,-6.30202 11.40625,-11.40625 17.03115,-17.29158 30.83322,-29.81761 41.40625,-37.57812 1.51029,-0.41656 2.8905,-0.72906 4.14063,-0.9375 1.24987,-0.26031 2.31758,-0.39052 3.20312,-0.39063 1.09362,1.1e-4 1.82279,0.70324 2.1875,2.10938 0.36445,1.35427 0.54674,5.02614 0.54688,11.01562 -1.4e-4,0.57301 -0.0522,1.97926 -0.15625,4.21875 -0.0522,1.51051 -0.1043,2.73447 -0.15625,3.67188 -16.14595,18.48965 -30.23448,33.95838 -42.26563,46.40625 -11.97924,12.39586 -23.9584,24.01043 -35.9375,34.84375 -1.66672,1.45834 -3.9063,3.48958 -6.71875,6.09375 -9.68754,8.85416 -15.98961,13.28123 -18.90625,13.28125 -0.72919,-2e-5 -1.4844,-0.0521 -2.26562,-0.15625 -0.7292,-0.0521 -1.64065,-0.15627 -2.73438,-0.3125 -4.01044,-2.13543 -7.47397,-4.32293 -10.39062,-6.5625 -2.8646,-2.18751 -5.26043,-4.47917 -7.1875,-6.875 -1.40626,-8.74999 -2.50001,-16.92707 -3.28125,-24.53125 -0.78126,-7.65622 -1.17188,-13.77601 -1.17188,-18.35938 0,-4.8437 0.41667,-8.48953 1.25,-10.9375 0.88541,-2.49994 2.60416,-5.15619 5.15625,-7.96875 0.20833,-0.20827 0.52083,-0.57285 0.9375,-1.09375 4.58332,-4.89576 9.66144,-7.34368 15.23438,-7.34375 0.88539,7e-5 1.56247,0.0261 2.03125,0.0781 0.5208,7e-5 1.01559,0.0261 1.48437,0.0781" style="line-height:125%;fill:#00bd3d;font-family:Zapf Dingbats;-inkscape-font-specification:Zapf Dingbats" id="path4657"/>
    </g>
    <path style="fill:none;stroke:#000000;stroke-width:2.5;stroke-linecap:butt;stroke-linejoin:miter;stroke-miterlimit:4;stroke-opacity:1;stroke-dasharray:none;marker-start:none;marker-end:url(#Arrow2Lend)" d="m 386.88843,362.42799 0,-85.86296" id="path3642" sodipodi:nodetypes="cc"/>
    <path sodipodi:nodetypes="cc" id="path4644" d="m 464.0962,443.25936 85.86296,0" style="fill:none;stroke:#000000;stroke-width:2.5;stroke-linecap:butt;stroke-linejoin:miter;stroke-miterlimit:4;stroke-opacity:1;stroke-dasharray:none;marker-start:none;marker-end:url(#Arrow2Lend)"/>
    <path sodipodi:nodetypes="cc" id="path4646" d="m 304.54184,443.17129 -85.86296,0" style="fill:none;stroke:#000000;stroke-width:2.5;stroke-linecap:butt;stroke-linejoin:miter;stroke-miterlimit:4;stroke-opacity:1;stroke-dasharray:none;marker-start:none;marker-end:url(#Arrow2Lend)"/>
    <path sodipodi:nodetypes="cc" id="path4648" d="m 386.80036,531.07373 0,85.86296" style="fill:none;stroke:#000000;stroke-width:2.5;stroke-linecap:butt;stroke-linejoin:miter;stroke-miterlimit:4;stroke-opacity:1;stroke-dasharray:none;marker-start:none;marker-end:url(#Arrow2Lend)"/>
  </g>
</svg>
